<svg xmlns="http://www.w3.org/2000/svg" width="36.936" height="36.936" viewBox="0 0 41.04 41.04">
  <g id="logo" transform="translate(-7 -9.293)">
    <g id="Group_387" data-name="Group 387" transform="translate(7 9.293)">
      <path id="Path_4021" data-name="Path 4021" d="M41.04,20.52A20.52,20.52,0,1,1,20.52,0,20.52,20.52,0,0,1,41.04,20.52" fill="#fff"/>
      <g id="Group_601" data-name="Group 601">
        <path id="Path_4022" data-name="Path 4022" d="M101.738.768A13.281,13.281,0,0,0,99.362,16.3l4.074-4.074a8,8,0,0,1-.275-2.079,7.909,7.909,0,0,1,2.331-5.628h0l2.968-2.969A20.422,20.422,0,0,0,102.293.213l-.553.553,0,0" transform="translate(-80.544 -0.175)" fill="#343750"/>
        <path id="Path_4023" data-name="Path 4023" d="M151.818,73.419h0a7.958,7.958,0,0,1-7.2,2.172l-4.163,4.162a13.289,13.289,0,0,0,15.112-2.582h0l.971-.971a20.387,20.387,0,0,0-1.549-5.956l-3.175,3.175h0" transform="translate(-115.612 -57.818)" fill="#343750"/>
        <path id="Path_4024" data-name="Path 4024" d="M77.8,153.2a13.283,13.283,0,0,0,2.567-15.153l-4.155,4.154a8.032,8.032,0,0,1,.165,1.619,7.908,7.908,0,0,1-2.331,5.628h0l-3.575,3.575a20.393,20.393,0,0,0,5.968,1.537l1.359-1.359,0,0" transform="translate(-58.002 -113.63)" fill="#343750"/>
        <path id="Path_4025" data-name="Path 4025" d="M4.974,103.362a7.963,7.963,0,0,1,7.659-2.064l4.082-4.082A13.29,13.29,0,0,0,1.221,99.61h0l-.988.988a20.422,20.422,0,0,0,1.349,6.155l3.391-3.391h0" transform="translate(-0.191 -78.797)" fill="#343750"/>
        <path id="Path_4026" data-name="Path 4026" d="M82.521,62.789a2.654,2.654,0,0,0-3.753,0L65.7,75.853a2.653,2.653,0,1,0,3.753,3.753L82.521,66.542a2.653,2.653,0,0,0,0-3.753" transform="translate(-53.442 -51.043)" fill="#343750"/>
      </g>
    </g>
  </g>
</svg>
